g polySurface32
v 0.01068994 0.001313898 0.01487031
v 0.008551951 0.001313898 0.01487031
v 0.008551951 0.001313898 0.01190013
v 0.01068994 0.001313898 0.01190013
v 0.006413964 0.001313898 0.01190013
v 0.006413964 0.001313898 0.01487031
v 0.004275975 0.001313898 0.01190013
v 0.004275975 0.001313898 0.01487031
v 0.002137988 0.001313898 0.01190013
v 0.002137988 0.001313898 0.01487031
v 9.382915E-20 0.001313898 0.01190013
v 9.382915E-20 0.001313898 0.01487031
v -0.002137989 0.001313898 0.01190013
v -0.002137989 0.001313898 0.01487031
v -0.004275975 0.001313898 0.01190013
v -0.004275975 0.001313898 0.01487031
v -0.006413964 0.001313898 0.01190013
v -0.006413964 0.001313898 0.01487031
v -0.008551952 0.001313898 0.01190013
v -0.008551952 0.001313898 0.01487031
v -0.01068994 0.001313898 0.01190013
v -0.01068994 0.001313898 0.01487031
v 0.002137988 0.001313898 0.008929951
v 9.382915E-20 0.001313898 0.008929951
v -0.002137989 0.001313898 0.008929951
v -0.004275975 0.001313898 0.008929951
v -0.006413964 0.001313898 0.008929951
v -0.008551952 0.001313898 0.008929951
v -0.01068994 0.001313898 0.008929951
v 9.382915E-20 0.001313898 0.005959772
v 0.002137988 0.001313898 0.005959772
v 0.004275975 0.001313898 0.008929951
v 0.006413964 0.001313898 0.008929951
v 0.008551951 0.001313898 0.008929951
v 0.01068994 0.001313898 0.008929951
v 0.008551951 0.001313898 0.005959772
v 0.01068994 0.001313898 0.005959772
v 0.006413964 0.001313898 0.005959772
v 0.004275975 0.001313898 0.005959772
v -0.01068994 0.001313898 0.005959772
v 0.008551951 0.001313898 0.002989592
v 0.01068994 0.001313898 0.002989592
v 0.006413964 0.001313898 0.002989592
v 0.004275975 0.001313898 0.002989592
v 0.002137988 0.001313898 0.002989592
v 9.382915E-20 0.001313898 0.002989592
v -0.002137989 0.001313898 0.002989592
v -0.002137989 0.001313898 0.005959772
v -0.004275975 0.001313898 0.005959772
v -0.006413964 0.001313898 0.005959772
v -0.008551952 0.001313898 0.005959772
v -0.004275975 0.001313898 0.002989592
v -0.006413964 0.001313898 0.002989592
v -0.008551952 0.001313898 0.002989592
v -0.01068994 0.001313898 0.002989592
v -0.004275975 0.001313898 1.941323E-05
v -0.002137989 0.001313898 1.941323E-05
v -0.006413964 0.001313898 1.941323E-05
v -0.008551952 0.001313898 1.941323E-05
v -0.01068994 0.001313898 1.941323E-05
v -0.004275975 0.001313898 -0.002950767
v -0.002137989 0.001313898 -0.002950767
v 9.382915E-20 0.001313898 1.941323E-05
v 0.002137988 0.001313898 1.941323E-05
v 0.004275975 0.001313898 1.941323E-05
v 0.006413964 0.001313898 1.941323E-05
v 0.008551951 0.001313898 1.941323E-05
v 0.01068994 0.001313898 1.941323E-05
v 0.008551951 0.001313898 -0.002950767
v 0.01068994 0.001313898 -0.002950767
v 0.006413964 0.001313898 -0.002950767
v 0.004275975 0.001313898 -0.002950767
v 0.002137988 0.001313898 -0.002950767
v 9.382915E-20 0.001313898 -0.002950767
v 0.008551951 0.001313898 -0.005920945
v 0.01068994 0.001313898 -0.005920945
v 0.006413964 0.001313898 -0.005920945
v 0.004275975 0.001313898 -0.005920945
v 0.002137988 0.001313898 -0.005920945
v 9.382915E-20 0.001313898 -0.005920945
v -0.002137989 0.001313898 -0.005920945
v -0.004275975 0.001313898 -0.005920945
v -0.006413964 0.001313898 -0.005920945
v -0.006413964 0.001313898 -0.002950767
v -0.008551952 0.001313898 -0.002950767
v -0.01068994 0.001313898 -0.002950767
v -0.008551952 0.001313898 -0.005920945
v -0.01068994 0.001313898 -0.005920945
v 0.002137988 0.001313898 -0.008891124
v 9.382915E-20 0.001313898 -0.008891124
v -0.004275975 0.001313898 -0.008891124
v -0.006413964 0.001313898 -0.008891124
v -0.008551952 0.001313898 -0.008891124
v -0.01068994 0.001313898 -0.008891124
v 9.382915E-20 0.001313898 -0.0118613
v 0.002137988 0.001313898 -0.0118613
v 0.004275975 0.001313898 -0.008891124
v 0.006413964 0.001313898 -0.008891124
v 0.008551951 0.001313898 -0.008891124
v 0.01068994 0.001313898 -0.008891124
v 0.008551951 0.001313898 -0.0118613
v 0.01068994 0.001313898 -0.0118613
v 0.006413964 0.001313898 -0.0118613
v 0.004275975 0.001313898 -0.0118613
v 0.008551951 0.001313898 -0.01483148
v 0.01068994 0.001313898 -0.01483148
v 0.006413964 0.001313898 -0.01483148
v 0.004275975 0.001313898 -0.01483148
v 0.002137988 0.001313898 -0.01483148
v 9.382915E-20 0.001313898 -0.01483148
v -0.002137989 0.001313898 -0.01483148
v -0.002137989 0.001313898 -0.0118613
v -0.002137989 0.001313898 -0.008891124
v -0.004275975 0.001313898 -0.0118613
v -0.006413964 0.001313898 -0.0118613
v -0.008551952 0.001313898 -0.0118613
v -0.01068994 0.001313898 -0.0118613
v -0.004275975 0.001313898 -0.01483148
v -0.006413964 0.001313898 -0.01483148
v -0.008551952 0.001313898 -0.01483148
v -0.01068994 0.001313898 -0.01483148
vt 0 0
vt 0.1 0
vt 0.1 0.1
vt 0 0.1
vt 0.2 0.1
vt 0.2 0
vt 0.3 0.1
vt 0.3 0
vt 0.4 0.1
vt 0.4 0
vt 0.5 0.1
vt 0.5 0
vt 0.6 0.1
vt 0.6 0
vt 0.7 0.1
vt 0.7 0
vt 0.8 0.1
vt 0.8 0
vt 0.9 0.1
vt 0.9 0
vt 1 0.1
vt 1 0
vt 0.4 0.2
vt 0.5 0.2
vt 0.6 0.2
vt 0.7 0.2
vt 0.8 0.2
vt 0.9 0.2
vt 1 0.2
vt 0.5 0.3
vt 0.4 0.3
vt 0.3 0.2
vt 0.2 0.2
vt 0.1 0.2
vt 0 0.2
vt 0.1 0.3
vt 0 0.3
vt 0.2 0.3
vt 0.3 0.3
vt 1 0.3
vt 0.1 0.4
vt 0 0.4
vt 0.2 0.4
vt 0.3 0.4
vt 0.4 0.4
vt 0.5 0.4
vt 0.6 0.4
vt 0.6 0.3
vt 0.7 0.3
vt 0.8 0.3
vt 0.9 0.3
vt 0.7 0.4
vt 0.8 0.4
vt 0.9 0.4
vt 1 0.4
vt 0.7 0.5
vt 0.6 0.5
vt 0.8 0.5
vt 0.9 0.5
vt 1 0.5
vt 0.7 0.6
vt 0.6 0.6
vt 0.5 0.5
vt 0.4 0.5
vt 0.3 0.5
vt 0.2 0.5
vt 0.1 0.5
vt 0 0.5
vt 0.1 0.6
vt 0 0.6
vt 0.2 0.6
vt 0.3 0.6
vt 0.4 0.6
vt 0.5 0.6
vt 0.1 0.7
vt 0 0.7
vt 0.2 0.7
vt 0.3 0.7
vt 0.4 0.7
vt 0.5 0.7
vt 0.6 0.7
vt 0.7 0.7
vt 0.8 0.7
vt 0.8 0.6
vt 0.9 0.6
vt 1 0.6
vt 0.9 0.7
vt 1 0.7
vt 0.4 0.8
vt 0.5 0.8
vt 0.7 0.8
vt 0.8 0.8
vt 0.9 0.8
vt 1 0.8
vt 0.5 0.9
vt 0.4 0.9
vt 0.3 0.8
vt 0.2 0.8
vt 0.1 0.8
vt 0 0.8
vt 0.1 0.9
vt 0 0.9
vt 0.2 0.9
vt 0.3 0.9
vt 0.1 1
vt 0 1
vt 0.2 1
vt 0.3 1
vt 0.4 1
vt 0.5 1
vt 0.6 1
vt 0.6 0.9
vt 0.6 0.8
vt 0.7 0.9
vt 0.8 0.9
vt 0.9 0.9
vt 1 0.9
vt 0.7 1
vt 0.8 1
vt 0.9 1
vt 1 1
vn 0 1 0
vn 0 1 0
vn 0 1 0
vn 0 1 0
vn 0 1 0
vn 0 1 0
vn 0 1 0
vn 0 1 0
vn 0 1 0
vn 0 1 0
vn 0 1 0
vn 0 1 0
vn 0 1 0
vn 0 1 0
vn 0 1 0
vn 0 1 0
vn 0 1 0
vn 0 1 0
vn 0 1 0
vn 0 1 0
vn 0 1 0
vn 0 1 0
vn 0 1 0
vn 0 1 0
vn 0 1 0
vn 0 1 0
vn 0 1 0
vn 0 1 0
vn 0 1 0
vn 0 1 0
vn 0 1 0
vn 0 1 0
vn 0 1 0
vn 0 1 0
vn 0 1 0
vn 0 1 0
vn 0 1 0
vn 0 1 0
vn 0 1 0
vn 0 1 0
vn 0 1 0
vn 0 1 0
vn 0 1 0
vn 0 1 0
vn 0 1 0
vn 0 1 0
vn 0 1 0
vn 0 1 0
vn 0 1 0
vn 0 1 0
vn 0 1 0
vn 0 1 0
vn 0 1 0
vn 0 1 0
vn 0 1 0
vn 0 1 0
vn 0 1 0
vn 0 1 0
vn 0 1 0
vn 0 1 0
vn 0 1 0
vn 0 1 0
vn 0 1 0
vn 0 1 0
vn 0 1 0
vn 0 1 0
vn 0 1 0
vn 0 1 0
vn 0 1 0
vn 0 1 0
vn 0 1 0
vn 0 1 0
vn 0 1 0
vn 0 1 0
vn 0 1 0
vn 0 1 0
vn 0 1 0
vn 0 1 0
vn 0 1 0
vn 0 1 0
vn 0 1 0
vn 0 1 0
vn 0 1 0
vn 0 1 0
vn 0 1 0
vn 0 1 0
vn 0 1 0
vn 0 1 0
vn 0 1 0
vn 0 1 0
vn 0 1 0
vn 0 1 0
vn 0 1 0
vn 0 1 0
vn 0 1 0
vn 0 1 0
vn 0 1 0
vn 0 1 0
vn 0 1 0
vn 0 1 0
vn 0 1 0
vn 0 1 0
vn 0 1 0
vn 0 1 0
vn 0 1 0
vn 0 1 0
vn 0 1 0
vn 0 1 0
vn 0 1 0
vn 0 1 0
vn 0 1 0
vn 0 1 0
vn 0 1 0
vn 0 1 0
vn 0 1 0
vn 0 1 0
vn 0 1 0
vn 0 1 0
vn 0 1 0
vn 0 1 0
vn 0 1 0
g polySurface32_0
f 3/3/3 2/2/2 1/1/1
f 4/4/4 3/3/3 1/1/1
f 3/3/3 5/5/5 2/2/2
f 5/5/5 6/6/6 2/2/2
f 5/5/5 7/7/7 6/6/6
f 7/7/7 8/8/8 6/6/6
f 7/7/7 9/9/9 8/8/8
f 9/9/9 10/10/10 8/8/8
f 9/9/9 11/11/11 10/10/10
f 11/11/11 12/12/12 10/10/10
f 11/11/11 13/13/13 12/12/12
f 13/13/13 14/14/14 12/12/12
f 13/13/13 15/15/15 14/14/14
f 15/15/15 16/16/16 14/14/14
f 15/15/15 17/17/17 16/16/16
f 17/17/17 18/18/18 16/16/16
f 17/17/17 19/19/19 18/18/18
f 19/19/19 20/20/20 18/18/18
f 19/19/19 21/21/21 20/20/20
f 21/21/21 22/22/22 20/20/20
f 23/23/23 9/9/9 7/7/7
f 24/24/24 11/11/11 9/9/9
f 23/23/23 24/24/24 9/9/9
f 25/25/25 13/13/13 11/11/11
f 24/24/24 25/25/25 11/11/11
f 26/26/26 15/15/15 13/13/13
f 25/25/25 26/26/26 13/13/13
f 27/27/27 17/17/17 15/15/15
f 26/26/26 27/27/27 15/15/15
f 28/28/28 19/19/19 17/17/17
f 27/27/27 28/28/28 17/17/17
f 29/29/29 21/21/21 19/19/19
f 28/28/28 29/29/29 19/19/19
f 30/30/30 24/24/24 23/23/23
f 31/31/31 30/30/30 23/23/23
f 31/31/31 23/23/23 32/32/32
f 32/32/32 23/23/23 7/7/7
f 32/32/32 7/7/7 5/5/5
f 33/33/33 32/32/32 5/5/5
f 33/33/33 5/5/5 3/3/3
f 34/34/34 33/33/33 3/3/3
f 34/34/34 3/3/3 4/4/4
f 35/35/35 34/34/34 4/4/4
f 36/36/36 34/34/34 35/35/35
f 37/37/37 36/36/36 35/35/35
f 38/38/38 33/33/33 34/34/34
f 36/36/36 38/38/38 34/34/34
f 39/39/39 32/32/32 33/33/33
f 38/38/38 39/39/39 33/33/33
f 39/39/39 31/31/31 32/32/32
f 40/40/40 29/29/29 28/28/28
f 41/41/41 36/36/36 37/37/37
f 42/42/42 41/41/41 37/37/37
f 43/43/43 38/38/38 36/36/36
f 41/41/41 43/43/43 36/36/36
f 44/44/44 39/39/39 38/38/38
f 43/43/43 44/44/44 38/38/38
f 44/44/44 45/45/45 39/39/39
f 45/45/45 31/31/31 39/39/39
f 45/45/45 46/46/46 31/31/31
f 46/46/46 30/30/30 31/31/31
f 46/46/46 47/47/47 30/30/30
f 47/47/47 48/48/48 30/30/30
f 30/30/30 48/48/48 24/24/24
f 48/48/48 25/25/25 24/24/24
f 48/48/48 49/49/49 25/25/25
f 49/49/49 26/26/26 25/25/25
f 49/49/49 50/50/50 26/26/26
f 50/50/50 27/27/27 26/26/26
f 50/50/50 51/51/51 27/27/27
f 51/51/51 28/28/28 27/27/27
f 51/51/51 40/40/40 28/28/28
f 52/52/52 49/49/49 48/48/48
f 47/47/47 52/52/52 48/48/48
f 53/53/53 50/50/50 49/49/49
f 52/52/52 53/53/53 49/49/49
f 54/54/54 51/51/51 50/50/50
f 53/53/53 54/54/54 50/50/50
f 55/55/55 40/40/40 51/51/51
f 54/54/54 55/55/55 51/51/51
f 56/56/56 52/52/52 47/47/47
f 57/57/57 56/56/56 47/47/47
f 58/58/58 53/53/53 52/52/52
f 56/56/56 58/58/58 52/52/52
f 59/59/59 54/54/54 53/53/53
f 58/58/58 59/59/59 53/53/53
f 60/60/60 55/55/55 54/54/54
f 59/59/59 60/60/60 54/54/54
f 61/61/61 56/56/56 57/57/57
f 62/62/62 61/61/61 57/57/57
f 62/62/62 57/57/57 63/63/63
f 63/63/63 57/57/57 46/46/46
f 63/63/63 46/46/46 45/45/45
f 64/64/64 63/63/63 45/45/45
f 64/64/64 45/45/45 44/44/44
f 65/65/65 64/64/64 44/44/44
f 65/65/65 44/44/44 43/43/43
f 66/66/66 65/65/65 43/43/43
f 66/66/66 43/43/43 41/41/41
f 67/67/67 66/66/66 41/41/41
f 67/67/67 41/41/41 42/42/42
f 68/68/68 67/67/67 42/42/42
f 69/69/69 67/67/67 68/68/68
f 70/70/70 69/69/69 68/68/68
f 71/71/71 66/66/66 67/67/67
f 69/69/69 71/71/71 67/67/67
f 72/72/72 65/65/65 66/66/66
f 71/71/71 72/72/72 66/66/66
f 73/73/73 64/64/64 65/65/65
f 72/72/72 73/73/73 65/65/65
f 73/73/73 74/74/74 64/64/64
f 74/74/74 63/63/63 64/64/64
f 74/74/74 62/62/62 63/63/63
f 75/75/75 69/69/69 70/70/70
f 76/76/76 75/75/75 70/70/70
f 77/77/77 71/71/71 69/69/69
f 75/75/75 77/77/77 69/69/69
f 78/78/78 72/72/72 71/71/71
f 77/77/77 78/78/78 71/71/71
f 79/79/79 73/73/73 72/72/72
f 78/78/78 79/79/79 72/72/72
f 80/80/80 74/74/74 73/73/73
f 79/79/79 80/80/80 73/73/73
f 81/81/81 62/62/62 74/74/74
f 80/80/80 81/81/81 74/74/74
f 81/81/81 82/82/82 62/62/62
f 82/82/82 61/61/61 62/62/62
f 82/82/82 83/83/83 61/61/61
f 83/83/83 84/84/84 61/61/61
f 61/61/61 84/84/84 56/56/56
f 84/84/84 58/58/58 56/56/56
f 84/84/84 85/85/85 58/58/58
f 85/85/85 59/59/59 58/58/58
f 85/85/85 86/86/86 59/59/59
f 86/86/86 60/60/60 59/59/59
f 87/87/87 85/85/85 84/84/84
f 83/83/83 87/87/87 84/84/84
f 88/88/88 86/86/86 85/85/85
f 87/87/87 88/88/88 85/85/85
f 89/89/89 79/79/79 78/78/78
f 90/90/90 80/80/80 79/79/79
f 89/89/89 90/90/90 79/79/79
f 91/91/91 82/82/82 81/81/81
f 92/92/92 83/83/83 82/82/82
f 91/91/91 92/92/92 82/82/82
f 93/93/93 87/87/87 83/83/83
f 92/92/92 93/93/93 83/83/83
f 94/94/94 88/88/88 87/87/87
f 93/93/93 94/94/94 87/87/87
f 95/95/95 90/90/90 89/89/89
f 96/96/96 95/95/95 89/89/89
f 96/96/96 89/89/89 97/97/97
f 97/97/97 89/89/89 78/78/78
f 97/97/97 78/78/78 77/77/77
f 98/98/98 97/97/97 77/77/77
f 98/98/98 77/77/77 75/75/75
f 99/99/99 98/98/98 75/75/75
f 99/99/99 75/75/75 76/76/76
f 100/100/100 99/99/99 76/76/76
f 101/101/101 99/99/99 100/100/100
f 102/102/102 101/101/101 100/100/100
f 103/103/103 98/98/98 99/99/99
f 101/101/101 103/103/103 99/99/99
f 104/104/104 97/97/97 98/98/98
f 103/103/103 104/104/104 98/98/98
f 104/104/104 96/96/96 97/97/97
f 105/105/105 101/101/101 102/102/102
f 106/106/106 105/105/105 102/102/102
f 107/107/107 103/103/103 101/101/101
f 105/105/105 107/107/107 101/101/101
f 108/108/108 104/104/104 103/103/103
f 107/107/107 108/108/108 103/103/103
f 108/108/108 109/109/109 104/104/104
f 109/109/109 96/96/96 104/104/104
f 109/109/109 110/110/110 96/96/96
f 110/110/110 95/95/95 96/96/96
f 110/110/110 111/111/111 95/95/95
f 111/111/111 112/112/112 95/95/95
f 95/95/95 112/112/112 90/90/90
f 112/112/112 113/113/113 90/90/90
f 90/90/90 113/113/113 80/80/80
f 113/113/113 81/81/81 80/80/80
f 113/113/113 91/91/91 81/81/81
f 114/114/114 91/91/91 113/113/113
f 112/112/112 114/114/114 113/113/113
f 114/114/114 115/115/115 91/91/91
f 115/115/115 92/92/92 91/91/91
f 115/115/115 116/116/116 92/92/92
f 116/116/116 93/93/93 92/92/92
f 116/116/116 117/117/117 93/93/93
f 117/117/117 94/94/94 93/93/93
f 118/118/118 114/114/114 112/112/112
f 111/111/111 118/118/118 112/112/112
f 119/119/119 115/115/115 114/114/114
f 118/118/118 119/119/119 114/114/114
f 120/120/120 116/116/116 115/115/115
f 119/119/119 120/120/120 115/115/115
f 121/121/121 117/117/117 116/116/116
f 120/120/120 121/121/121 116/116/116
f 57/57/57 47/47/47 46/46/46
